<?xml version="1.0" encoding="utf-8"?>
<!-- Generator: Adobe Illustrator 27.5.0, SVG Export Plug-In . SVG Version: 6.00 Build 0)  -->
<svg version="1.1" xmlns="http://www.w3.org/2000/svg" xmlns:xlink="http://www.w3.org/1999/xlink" x="0px" y="0px"
	 viewBox="0 0 750 500" style="enable-background:new 0 0 750 500;" xml:space="preserve">
<g id="BACKGROUND">
	<rect style="fill-rule:evenodd;clip-rule:evenodd;fill:#FFFFFF;" width="750" height="500"/>
</g>
<g id="OBJECTS">
	<g>
		<g>
			<g>
				<path style="fill-rule:evenodd;clip-rule:evenodd;fill:#F7EBE1;" d="M303.547,72.213
					c271.108-76.343,214.285,59.358,188.845,100.294c-25.44,40.937,147.75-47.077,196.674,32.749
					C753.637,310.614,628.253,500,531.531,500h-371.82C-19.34,378.023,32.438,148.556,303.547,72.213z"/>
				<path style="fill-rule:evenodd;clip-rule:evenodd;fill:#F7EBE1;" d="M149.924,117.799c40.101,4.494,45.988-16.374,42.074-32.749
					C182.332,44.608,109.823,113.305,149.924,117.799z"/>
				<path style="fill-rule:evenodd;clip-rule:evenodd;fill:#F7EBE1;" d="M206.919,83.307c7.738,2.754,15.775-5.007,13.574-10.507
					C215.059,59.217,192.004,77.998,206.919,83.307z"/>
				<path style="fill-rule:evenodd;clip-rule:evenodd;fill:#F7EBE1;" d="M650.578,469.246c18.622-3.837,36.881-32.654,31.107-42.588
					C667.425,402.122,614.688,476.641,650.578,469.246z"/>
				<path style="fill-rule:evenodd;clip-rule:evenodd;fill:#F7EBE1;" d="M684.532,413.11c8.794-1.565,12.647-13.383,7.803-17.463
					C680.368,385.569,667.582,416.127,684.532,413.11z"/>
				<path style="fill-rule:evenodd;clip-rule:evenodd;fill:#F7EBE1;" d="M618.932,155.238c7.566,4.944,17.954-1.207,16.928-7.623
					C633.322,131.766,604.351,145.708,618.932,155.238z"/>
			</g>
			<g>
				<g>
					<path style="fill-rule:evenodd;clip-rule:evenodd;fill:#791B12;" d="M247.746,165.63c-6.422-5.026-11.613-15.339-9.574-16.565
						c2.041-1.227,7.478,9.322,7.478,9.322s-0.805-11.388,3.123-12.36C252.701,145.053,250.829,166.485,247.746,165.63z"/>
					<path style="fill-rule:evenodd;clip-rule:evenodd;fill:#791B12;" d="M237.57,164.321c9.211-5.458,34.114-4.435,43.325,21.833
						c9.21,26.268-2.389,62.087-19.105,73.345C245.075,270.756,237.57,164.321,237.57,164.321z"/>
					<path style="fill-rule:evenodd;clip-rule:evenodd;fill:#791B12;" d="M254.969,182.742c0.341-12.963-6.141-26.609-32.067-37.866
						c-25.926-11.258-46.735-7.846-66.521,12.622c-19.786,20.468-26.097,70.615-50.659,90.401
						c-14.657,11.807-68.817,14.406-61.917,59.017c0,0,2.729-10.575,13.987-15.692c11.257-5.117,21.492-4.094,21.492-4.094
						s-16.716,5.458-22.515,20.127c-5.799,14.669-2.047,27.633-2.047,27.633c20.633-26.188,62.17,9.214,103.365-13.987
						c29.679-16.716,43.324-32.408,43.665-68.228C202.093,216.855,216.42,175.578,254.969,182.742z"/>
					<path style="fill-rule:evenodd;clip-rule:evenodd;fill:#4E1000;" d="M264.18,246.193
						c30.357-75.686-16.912-72.476-21.502-78.792c-14.783-4.794-20.877-8.624-35.11-3.623
						c-14.234,5.002-34.284,60.381-60.894,81.362c-26.608,20.979-50.913,21.492-73.812,28.145
						c-20.321,5.903-26.739,19.463-28.463,31.918c1.289-3.206,4.932-10.134,13.393-13.979c11.257-5.117,21.492-4.094,21.492-4.094
						s-16.716,5.458-22.515,20.127c-5.799,14.669-2.047,27.633-2.047,27.633c20.633-26.188,62.17,9.214,103.365-13.987
						c29.679-16.716,43.324-32.408,43.665-68.228C202.093,216.855,225.631,239.029,264.18,246.193z"/>
					<path style="fill-rule:evenodd;clip-rule:evenodd;fill:#DA9B17;" d="M189.471,284.06
						c-18.838,11.68-31.209,24.877-39.203,37.577c-3.27,5.195-7.515,7.411-9.945,13.509c-2.388,5.99-1.949,13.286-4.068,20.553
						c-9.552,32.749-12.964,93.472-12.964,93.472c-10.429,13.394-3.342,15.206-0.682,26.609c0,0,12.963-7.506,36.501-4.094
						c23.538,3.411,16.892,4.435,16.892,4.435c1.8-6.71,4.836-17.408,0-23.453l12.105-44.434
						c6.954,24.627,25.538,59.851,39.461,91.767h147.156l-40.609-109.847l32.749-62.77c-35.68-22.179-47.228-39.717-61.999-47.355
						c-3.496-1.808-8.141,0.319-12.221-0.806C272.052,273.542,239.081,276.238,189.471,284.06z"/>
					<path style="fill-rule:evenodd;clip-rule:evenodd;fill:#BF8118;" d="M187.346,411.027l0.761-2.794
						c6.954,24.627,25.538,59.851,39.461,91.767h147.156l-40.609-109.847l18.205-34.893c-2.518-4.746-5.285-8.119-8.174-8.842
						c-10.234-2.559-37.866-24.05-37.866-24.05s8.188,27.632,8.188,31.214c0,3.582-8.188,8.188-7.676,11.257
						c0.512,3.07-61.404,74.198-63.707,74.454c-2.303,0.256-23.795,1.023-31.726-2.303c-7.932-3.326-13.305-17.909-28.399-52.961
						C184.561,393.449,186.017,402.447,187.346,411.027z"/>
					<path style="fill-rule:evenodd;clip-rule:evenodd;fill:#BF8118;" d="M312.196,356.94c0.075-14.238-5.843-25.565-7.121-40.233
						c-0.549-6.297-0.353-14.233,0.072-20.612c1.72,7.357,1.301,12.934,2.401,20.319c2.225,14.917,8.518,25.564,8.972,40.621
						c-0.026,1.194-1.016,2.141-2.21,2.115C313.116,359.123,312.169,358.134,312.196,356.94z"/>
					<path style="fill-rule:evenodd;clip-rule:evenodd;fill:#BF8118;" d="M307.831,500h1.561
						c-20.158-38.9-34.306-81.098-53.082-120.673c-9.36-19.73-20.113-41.913-37.365-55.796c-0.955-0.717-2.312-0.523-3.028,0.432
						c-0.717,0.955-0.524,2.312,0.432,3.028c17.176,13.543,28.609,37.083,38.009,56.57C272.521,421.223,287.498,463.728,307.831,500
						z"/>
					<path style="fill-rule:evenodd;clip-rule:evenodd;fill:#BF8118;" d="M186.326,414.769l1.78-6.535
						c0.662,2.348,1.432,4.791,2.291,7.318c0.155-0.299,0.244-0.638,0.244-0.998c-0.841-6.402-8.566-41.351-13.089-44.687
						c-4.643-3.424-9.634-6.35-14.526-10.128c-2.324-1.794-4.38-3.363-6.273-5.566c0.549,4.311,15.543,15.251,19.449,17.946
						l-0.067-0.027c3.321,5.363,9.421,35.467,10.181,42.462C186.315,414.626,186.319,414.698,186.326,414.769z"/>
					<g>
						<path style="fill-rule:evenodd;clip-rule:evenodd;fill:#BF8118;" d="M123.372,447.814c-0.055,0.878-0.082,1.356-0.082,1.356
							c-1.501,1.928-2.638,3.615-3.479,5.126c0.527,0.087,1.087-0.021,1.564-0.344c10.933-8.247,17.11-6.57,29.745-8.954
							C140.52,443.209,132.265,443.328,123.372,447.814z"/>
						<path style="fill-rule:evenodd;clip-rule:evenodd;fill:#BF8118;" d="M178.384,458.468c-0.333-2.162-1.065-4.154-2.383-5.801
							l0.328-1.205c-5.106-3.516-11.079-5.944-17.05-6.977l0.072,0.029c-0.515-0.11-0.244-0.094-0.811-0.028
							C159.093,445.563,172.145,451.506,178.384,458.468z"/>
					</g>
					<path style="fill-rule:evenodd;clip-rule:evenodd;fill:#3E4157;" d="M186.06,263.25c-7.164,6.141-8.528,6.823-13.305,21.492
						c-4.775,14.669-7.505,33.772-7.505,33.772l27.974-2.047l-9.211,11.258l44.348,9.552l6.481-0.342l20.81-22.515l-8.188-8.188
						l25.585-7.164C273.049,299.069,233.136,242.441,186.06,263.25z"/>
					<path style="fill-rule:evenodd;clip-rule:evenodd;fill:#EDCBAB;" d="M180.942,244.146c3.069,20.81,6.481,29.679,13.986,46.736
						c7.505,17.057,25.586,44.688,35.819,51.512c10.234,6.822,2.047-12.622,4.094-28.997c2.047-16.374,4.094-38.89,4.094-38.89
						L180.942,244.146z"/>
					<path style="fill-rule:evenodd;clip-rule:evenodd;fill:#E4AE8F;" d="M180.942,244.146c1.785,12.101,1.896,13.385,4.649,21.369
						c6.835,13.9,18.856,25.074,32.105,30.498c22.43,9.182,19.694-4.521,21.238-21.506L180.942,244.146z"/>
					<path style="fill-rule:evenodd;clip-rule:evenodd;fill:#EDCBAB;" d="M235.352,163.98c5.19,0.932,9.029,2.728,12.107,5.895
						c3.129,5.476,5.462,13.373,8.021,24.64c5.458,24.032,7.334,42.665,6.822,51.585c-0.377,6.584-6.73,26.875-10.597,35.005
						c-7.409,6.393-24.379,7.233-33.753,3.396c-17.208-7.045-29.759-23.791-35.136-28.754c0,0-12.281,5.799-21.832-2.218
						c-12.425-10.427-8.438-20.303-0.203-22.62c3.843-0.063,8.702,1.363,10.778,3.881c0,0-0.034-1.008-0.014-2.789
						c1.265,0.557,2.349,1.257,3.084,2.084C174.631,234.084,171.73,155.281,235.352,163.98z"/>
					<path style="fill-rule:evenodd;clip-rule:evenodd;fill:#E4AE8F;" d="M235.352,163.98c5.291,0.95,9.178,2.799,12.285,6.083
						c-8.361-2.203-20.814-2.176-35.139,22.444c-14.323,24.62-34.877,41.202-50.864,43.894c-15.987,2.691-4.216,2.626-8.458,2.477
						c0.216-1.442,0.762-2.751,1.564-3.886c3.806-0.658,7.885-1.973,11.951-4.324c2.585,0.361,8.031-3.872,8.386-7.765
						c9.325-13.809,13.751-41.079,29.636-55.015C212.656,163.994,222.682,162.247,235.352,163.98z"/>
					<path style="fill-rule:evenodd;clip-rule:evenodd;fill:#FFFFFF;" d="M254.699,211.257c-2.483,0.228-4.272,3.465-3.997,7.231
						c0.275,3.767,2.511,6.636,4.994,6.408c2.482-0.228,4.273-3.464,3.997-7.23C259.418,213.899,257.182,211.03,254.699,211.257z"/>
					<path style="fill-rule:evenodd;clip-rule:evenodd;fill:#FFFFFF;" d="M215.36,215.868c-3.146,0.257-5.415,3.891-5.069,8.115
						c0.345,4.226,3.175,7.442,6.32,7.185c3.146-0.257,5.415-3.891,5.069-8.115C221.335,218.827,218.506,215.611,215.36,215.868z"/>
					<path style="fill-rule:evenodd;clip-rule:evenodd;fill:#DC9576;" d="M171.511,239.116c-2.51-2.14-4.772-2.93-6.53-2.482
						c-8.872,2.255,1.139,19.598,9.969,13.428C180.587,246.123,171.511,239.116,171.511,239.116z"/>
					<path style="fill-rule:evenodd;clip-rule:evenodd;fill:#4E1000;" d="M211.907,215.363c-3.145,0.269-5.415,4.06-5.069,8.467
						c0.346,4.408,3.175,7.765,6.32,7.496c3.145-0.269,5.415-4.059,5.069-8.467C217.883,218.451,215.053,215.096,211.907,215.363z"
						/>
					<path style="fill-rule:evenodd;clip-rule:evenodd;fill:#4E1000;" d="M210.415,218.936c4.136-4.717,8.521-1.268,10.791,2.512
						c0.3-5.112-6.487-9.79-12.169-4.082c-0.445,0.547-0.498,1.341-0.117,1.774C209.3,219.573,209.97,219.481,210.415,218.936z"/>
					<path style="fill-rule:evenodd;clip-rule:evenodd;fill:#4E1000;" d="M199.585,210.322c2.334-0.843,22.686-4.317,22.725-5.66
						C222.467,199.019,207.383,201.021,199.585,210.322z"/>
					<path style="fill-rule:evenodd;clip-rule:evenodd;fill:#4E1000;" d="M251.958,211.273c-1.897,0.228-3.264,3.465-3.054,7.231
						c0.21,3.766,1.919,6.636,3.815,6.408c1.896-0.228,3.264-3.465,3.053-7.232C255.563,213.915,253.854,211.047,251.958,211.273z"
						/>
					<path style="fill-rule:evenodd;clip-rule:evenodd;fill:#4E1000;" d="M261.878,205.456c-2.838-2.074-5.605-3.355-9.697-1.967
						c-1.188,0.173-5.459,1.466-6.067,0.054C244.144,198.97,256.353,194.583,261.878,205.456z"/>
					<path style="fill-rule:evenodd;clip-rule:evenodd;fill:#E7B798;" d="M123.537,473.031c0,5.136,0,5.136,0,5.136L120.491,500
						h55.51v-21.492c0-1.307,0-3.397,0-5.221C176.001,461.99,123.537,460.717,123.537,473.031z"/>
					<path style="fill-rule:evenodd;clip-rule:evenodd;fill:#EDCBAB;" d="M123.537,473.031c0,5.136,0,5.136,0,5.136L120.491,500
						h42.973v-14.072c0-1.308,0-3.397,0-5.221c0-7.703-24.385-10.743-39.905-7.997C123.55,472.817,123.537,472.923,123.537,473.031z
						"/>
					<path style="fill-rule:evenodd;clip-rule:evenodd;fill:#791B12;" d="M171.471,229.807c5.629,7.163,9.467,14.583,9.467,14.583
						s2.559-21.491,2.303-28.399C182.984,209.082,171.471,229.807,171.471,229.807z"/>
					<path style="fill-rule:evenodd;clip-rule:evenodd;fill:#A85A49;" d="M239.958,165.319
						c-10.574-3.463-20.365-4.936-33.721,23.436c-13.355,28.371-19.435,42.686-44.71,49.241
						c-25.274,6.556-33.462-1.231-33.462-1.231s18.194,5.283,33.462-7.657c15.268-12.941,11.909-60.661,42.271-72.13
						C234.159,145.508,239.958,165.319,239.958,165.319z"/>
					<path style="fill-rule:evenodd;clip-rule:evenodd;fill:#D7967A;" d="M247.394,234.923c-0.191,2.879-2.174,3.71-7.419,4.67
						c-5.245,0.959-4.094,3.325-0.064,4.988C243.94,246.244,248.418,243.11,247.394,234.923z"/>
					<path style="fill-rule:evenodd;clip-rule:evenodd;fill:#4E1000;" d="M241.778,240.154c9.137-2.783,4.542-5.709,1.916-13.873
						c5.674,7.598,8.842,12.397-1.229,16.191c-0.641,0.188-1.313-0.176-1.503-0.816
						C240.772,241.017,241.138,240.344,241.778,240.154z"/>
					<path style="fill-rule:evenodd;clip-rule:evenodd;fill:#4E1000;" d="M251.114,214.704c2.628-5.183,6.512-1.378,8.78,2.789
						c-0.429-5.628-6.354-10.792-10.063-4.52c-0.278,0.6-0.217,1.475,0.138,1.953C250.323,215.403,250.837,215.305,251.114,214.704z
						"/>
					<path style="fill-rule:evenodd;clip-rule:evenodd;fill:#D7967A;" d="M246.307,263.052c-3.73,1.335-7.186,2.874-12.785,1.698
						c-5.599-1.175-0.868,3.728,2.254,5.018C238.896,271.056,247.1,269.395,246.307,263.052z"/>
					<path style="fill-rule:evenodd;clip-rule:evenodd;fill:#FFFFFF;" d="M242.688,229.35c-0.593,0.099-0.458,1.651,0.302,3.468
						c0.759,1.816,1.854,3.209,2.447,3.11c0.593-0.099,0.458-1.65-0.301-3.468C244.376,230.644,243.28,229.251,242.688,229.35z"/>
					<path style="fill-rule:evenodd;clip-rule:evenodd;fill:#D57B59;" d="M207.819,248.462c5.637,0,10.233-2.873,10.233-6.395
						c0-3.523-4.597-6.396-10.233-6.396c-5.636,0-10.233,2.873-10.233,6.396C197.586,245.589,202.184,248.462,207.819,248.462z"/>
					<path style="fill-rule:evenodd;clip-rule:evenodd;fill:#4E1000;" d="M224.96,249.473c6.536,7.886,17.408,6.056,26.351,4.167
						c-2.039,1.359-1.579,1.236-4.384,2.071c-8.727,2.601-17.872,2.43-24.272-4.557c-0.465-0.636-0.325-1.528,0.311-1.993
						C223.602,248.697,224.495,248.836,224.96,249.473z"/>
					<path style="fill-rule:evenodd;clip-rule:evenodd;fill:#D57B59;" d="M261.083,231.289c0.212-0.037,0.421-0.07,0.629-0.098
						c0.405,4.116,0.619,7.699,0.663,10.674c-0.355,0.09-0.717,0.167-1.084,0.232c-4.918,0.87-8.951-0.845-9.008-3.829
						C252.226,235.283,256.166,232.158,261.083,231.289z"/>
					<path style="fill-rule:evenodd;clip-rule:evenodd;fill:#FFFFFF;" d="M209.269,218.573c0.813,0,1.471,0.658,1.471,1.471
						s-0.658,1.471-1.471,1.471s-1.472-0.658-1.472-1.471S208.456,218.573,209.269,218.573z"/>
					<path style="fill-rule:evenodd;clip-rule:evenodd;fill:#FFFFFF;" d="M250.973,214.352c0.813,0,1.471,0.658,1.471,1.471
						s-0.658,1.472-1.471,1.472s-1.471-0.659-1.471-1.472S250.16,214.352,250.973,214.352z"/>
					<path style="fill-rule:evenodd;clip-rule:evenodd;fill:#D57B59;" d="M164.416,227.708c7.359-5.354,9.416-5.361,15.291-13.307
						c12.489-16.891,22.332-55.732,48.035-53.896c4.717,0.337,9.701,1.341,9.848,3.368c-0.38-0.096-0.093-0.005-0.634-0.295
						c-2.517-1.351-6.949-1.823-11.145-1.479c-9.144,0.751-12.806,5.171-17.944,12.451c-5.907,8.367-11.412,19.257-15.24,25.788
						C185.654,212.233,178.334,223.847,164.416,227.708z"/>
					<path style="fill-rule:evenodd;clip-rule:evenodd;fill:#BF8118;" d="M177.244,374.494c3.229,22.684,3.96,27.132-1.193,43.819
						c-3.977,12.875-6.972,23.788-8.261,28.593c2.999,1.195,5.886,2.728,8.539,4.556l9.997-36.693
						c-0.007-0.07-0.011-0.143-0.011-0.215C185.634,408.281,180.66,383.43,177.244,374.494z"/>
					<path style="fill-rule:evenodd;clip-rule:evenodd;fill:#823B2F;" d="M174.988,248.505c1.494-3.644-8.944-12.883-11.4-11.363
						c-1.383,0.856-1.924,3.18-2.388,4.623c-0.275-1.922,0.367-4.813,2.349-5.718c2.983-1.359,15.425,7.316,13.287,13.306
						c-0.233,0.51-0.837,0.733-1.348,0.5C174.979,249.618,174.755,249.015,174.988,248.505z"/>
				</g>
				<g>
					<path style="fill-rule:evenodd;clip-rule:evenodd;fill:#A85A49;" d="M514.519,158.82c-5.852-4.633-7.76-16.898-4.627-19.274
						c3.133-2.376,5.245,10.124,5.245,10.124s4.124-15.245,9.529-17.928C530.071,129.061,518.03,158.921,514.519,158.82z"/>
					<path style="fill-rule:evenodd;clip-rule:evenodd;fill:#89ABA9;" d="M434.73,347.508l43.857,27.124L462.198,500h182.073
						c1.871-14.849-45.879-73.906-45.879-89.988c0,0,17.162-76.145,17.162-100.708c0-36.011-64.733-58.253-112.85-51.586
						C448.504,265.229,449.181,302.511,434.73,347.508z"/>
					<path style="fill-rule:evenodd;clip-rule:evenodd;fill:#6C8287;" d="M473.928,410.273L462.198,500h182.073
						c0.684-5.425-5.258-16.751-13.071-29.726c-5.904-0.044-12.038-0.171-18.285-0.411c-39.913-1.535-93.131-28.145-126.392-61.405
						C482.119,408.946,477.927,409.556,473.928,410.273z"/>
					<g>
						<path style="fill-rule:evenodd;clip-rule:evenodd;fill:#6C8287;" d="M512.099,267.764
							c-2.456,31.439-0.303,38.448,7.639,68.313c1.211,4.552,3.527,9.365,4.019,13.669c-2.178-4.52-4.133-8.387-5.727-13.157
							c-9.675-28.938-11.852-38.334-10.248-69.119c0.082-1.191,1.113-2.092,2.305-2.011
							C511.28,265.54,512.18,266.572,512.099,267.764z"/>
						<path style="fill-rule:evenodd;clip-rule:evenodd;fill:#6C8287;" d="M574.946,286.933
							c-9.984,29.778-34.433,67.357-63.294,81.695c-2.789,1.386-2.366,1.131-5.294,2.098c6.633-4.195-1.945,1.199,4.819-2.955
							c27.861-17.11,50.003-51.381,59.636-82.116c0.354-1.142,1.564-1.779,2.706-1.427
							C574.661,284.58,575.299,285.792,574.946,286.933z"/>
					</g>
					<path style="fill-rule:evenodd;clip-rule:evenodd;fill:#6C8287;" d="M462.673,361.498c0.321-22.688,12.61-32.381,17.923-51.108
						c0.531-1.873,3.313-13.582,4.417-15.063c0.789,1.973-1.356,13.695-1.724,15.64c-3.359,17.847-15.406,29.742-14.826,50.21
						c0.088,1.599-1.135,2.966-2.734,3.056C464.13,364.321,462.762,363.097,462.673,361.498z"/>
					<path style="fill-rule:evenodd;clip-rule:evenodd;fill:#6C8287;" d="M601.495,395.754c4.944-23.252,14.06-68.548,14.06-86.45
						c0-3.286-0.544-6.457-1.562-9.503c-17.688,15.434-49.585,59.162-64.132,110.35C558.268,411.351,580.043,406.74,601.495,395.754
						z"/>
					<path style="fill-rule:evenodd;clip-rule:evenodd;fill:#89ABA9;" d="M550.738,408.233
						c14.328-1.364,62.087-27.973,77.779-66.862c15.692-38.89-22.563-63.001-32.115-63.684
						C586.85,277.005,553.468,340.006,550.738,408.233z"/>
					<path style="fill-rule:evenodd;clip-rule:evenodd;fill:#791B12;" d="M612.825,221.291
						c6.591,24.162,36.604,42.428,36.264,65.824c-0.146,10.086-3.158,23.904-20.712,34.968c-9.439,5.948,0.822,14.435-12.47,36.451
						c-2.625,4.348-12.681,11.621-17.068,12.516c-7.861,1.603,14.447-15.754-3.289-20.655
						c-36.071-9.968-59.696-41.522-32.871-96.696C592.698,191.953,584.17,191.27,612.825,221.291z"/>
					<path style="fill-rule:evenodd;clip-rule:evenodd;fill:#4E1000;" d="M579.57,344.063
						c-26.285-14.171-39.488-43.886-16.892-90.364c11.07-22.77,16.896-37.227,21.281-44.911
						c10.705,19.307,39.85,29.164,39.543,50.184c-0.146,10.087-9.298,32.604-26.852,43.667c-9.439,5.948,0.821,14.435-12.47,36.452
						C583.308,340.537,581.608,342.31,579.57,344.063z"/>
					<path style="fill-rule:evenodd;clip-rule:evenodd;fill:#DC9576;" d="M583.999,233.571
						c-31.043,71.298-48.441,104.73-53.559,105.753c-5.116,1.023-13.304-54.924-13.304-54.924l0.683-26.267L583.999,233.571z"/>
					<path style="fill-rule:evenodd;clip-rule:evenodd;fill:#A85A49;" d="M583.999,233.571
						c-6.525,14.985-12.444,28.291-17.776,39.981c-12.993,13.278-28.987,29.086-47.72,19.618c-0.852-5.253-1.366-8.771-1.366-8.771
						l0.683-26.267L583.999,233.571z"/>
					<path style="fill-rule:evenodd;clip-rule:evenodd;fill:#A85A49;" d="M516.453,151.869
						c-16.375-2.729-34.114,9.552-40.936,50.488c-6.823,40.936,13.645,59.357,46.394,67.545
						C554.66,278.09,538.968,162.786,516.453,151.869z"/>
					<path style="fill-rule:evenodd;clip-rule:evenodd;fill:#791B12;" d="M489.117,254.063c8.241,7.512,19.507,12.519,32.794,15.84
						c27.532,6.884,20.825-73.508,4.612-105.783c-0.285-0.174-0.572-0.341-0.859-0.481c-16.375-2.729-34.114,9.552-40.937,50.489
						C481.921,230.964,483.734,243.989,489.117,254.063z"/>
					<path style="fill-rule:evenodd;clip-rule:evenodd;fill:#DC9576;" d="M579.184,230.977c2.894-5.257,6.239-8.057,9.518-8.427
						c16.554-1.87,10.671,34.09-8.329,29.27C568.242,248.741,579.184,230.977,579.184,230.977z"/>
					<path style="fill-rule:evenodd;clip-rule:evenodd;fill:#C2684D;" d="M582.493,233.856c1.592-2.89,3.43-4.428,5.23-4.631
						c9.098-1.028,5.864,18.734-4.577,16.085C576.48,243.619,582.493,233.856,582.493,233.856z"/>
					<path style="fill-rule:evenodd;clip-rule:evenodd;fill:#EAC1A2;" d="M516.794,162.444
						c-10.916,6.141-18.421,18.422-19.786,42.301c-1.364,23.88,0,39.572,7.164,52.877c7.164,13.304,11.599,19.444,15.692,21.832
						c22.944,13.384,41.861-11.736,56.288-25.585c0,0,16.374-28.314,16.374-50.147S565.918,128.672,516.794,162.444z"/>
					<path style="fill-rule:evenodd;clip-rule:evenodd;fill:#DC9576;" d="M516.794,162.444c-4.076,2.292-7.676,5.441-10.658,9.729
						c11.882-6.564,34.952-11.421,49.236-0.167c16.703,13.16,14.634,53.103,28.702,65.604c4.18-9.896,8.452-22.738,8.452-33.89
						c0-8.693-4.223-22.359-12.402-33.531c-1.181-0.708-2.454-1.111-4.026-1.254c-3.72-0.338-29.106-13.851-50.037-11.989
						C523.066,158.438,519.979,160.255,516.794,162.444z"/>
					<path style="fill-rule:evenodd;clip-rule:evenodd;fill:#A85A49;" d="M513.383,164.491c-4.776-11.94,9.584-38.94,52.194-35.479
						c65.926,5.356,55.617,78.806,65.739,113.016c1.517,5.125,7.205,19.828,9.064,21.76c4.721,4.903-9.643-12.405-24.238-20.383
						c-10.114-5.529-21.708-1.101-27.027-6.935c-10.575-11.599-14.328-55.946-32.749-67.545
						C537.944,157.327,513.383,164.491,513.383,164.491z"/>
					<path style="fill-rule:evenodd;clip-rule:evenodd;fill:#FFFFFF;" d="M513.969,203.876c3.138,0.571,5.261,4.413,4.741,8.582
						c-0.52,4.17-3.483,7.087-6.621,6.517c-3.139-0.57-5.261-4.413-4.741-8.582C507.867,206.224,510.831,203.306,513.969,203.876
						L513.969,203.876z M555.315,210.06c3.138,0.57,5.26,4.412,4.741,8.582c-0.52,4.169-3.484,7.086-6.621,6.516
						c-3.139-0.57-5.261-4.412-4.741-8.581C549.213,212.406,552.177,209.488,555.315,210.06z"/>
					<path style="fill-rule:evenodd;clip-rule:evenodd;fill:#4E1000;" d="M558.91,210.442c3.103,0.571,4.998,4.413,4.231,8.583
						c-0.766,4.169-3.902,7.086-7.007,6.516c-3.103-0.57-4.998-4.412-4.232-8.582C552.669,212.79,555.806,209.872,558.91,210.442z"
						/>
					<path style="fill-rule:evenodd;clip-rule:evenodd;fill:#4E1000;" d="M560.578,213.93c-3.44-4.887-9.481-2.186-13.172,1.076
						c1.1-4.806,10.263-8.373,15.209-2.379c0.359,0.563,0.195,1.309-0.367,1.669C561.686,214.656,560.938,214.492,560.578,213.93z"
						/>
					<path style="fill-rule:evenodd;clip-rule:evenodd;fill:#4E1000;" d="M517.291,204.644c3.103,0.57,4.999,4.413,4.232,8.582
						c-0.767,4.169-3.903,7.087-7.007,6.517c-3.105-0.57-5-4.413-4.233-8.582C511.05,206.99,514.186,204.073,517.291,204.644z"/>
					<path style="fill-rule:evenodd;clip-rule:evenodd;fill:#4E1000;" d="M518.96,208.13c-3.441-4.887-9.482-2.185-13.173,1.076
						c1.101-4.806,10.264-8.373,15.209-2.379c0.36,0.563,0.196,1.311-0.367,1.67C520.067,208.856,519.32,208.692,518.96,208.13z"/>
					<path style="fill-rule:evenodd;clip-rule:evenodd;fill:#4E1000;" d="M555.664,193.063c5.487,0.029,10.384,0.879,14.177,4.797
						c-4.464-0.484-9.012-1.196-13.309-0.041c-1.313,0.24-2.572-0.63-2.813-1.943C553.479,194.561,554.35,193.303,555.664,193.063z"
						/>
					<path style="fill-rule:evenodd;clip-rule:evenodd;fill:#4E1000;" d="M520.545,190.025c-5.446-0.682-9.946-0.32-14.214,3.074
						c4.52-0.693,8.626-0.173,12.736,1.529c1.271,0.408,2.632-0.292,3.041-1.563C522.517,191.795,521.816,190.434,520.545,190.025z"
						/>
					<path style="fill-rule:evenodd;clip-rule:evenodd;fill:#FFFFFF;" d="M551.621,242.521c-14.126,9.422-34.662,2.66-34.662,2.66
						c8.889,8.589,2.932,20.645,12.124,21.607C539.531,267.883,549.918,255.515,551.621,242.521z"/>
					<path style="fill-rule:evenodd;clip-rule:evenodd;fill:#EAC1A2;" d="M581.611,274.167c7.505-3.07,18.08-4.094,18.08-4.094
						l2.389,2.217c0,0,1.62-1.45,3.155-1.535c1.535-0.085,2.984,2.303,2.984,2.303s1.45-1.535,3.412-1.62
						c1.961-0.086,3.326,2.728,3.326,2.728l-0.598-9.039c0,0-4.094-6.652-4.264-9.723c-0.171-3.07,1.705-4.094,1.705-4.094
						s9.894,15.521,10.746,18.08c0.852,2.559-6.482,33.603-6.482,33.603l-18.251,21.662c0,0-16.552,60.497-22.856,69.251
						c-11.488,15.95-26.012,18.809-32.874,13.966c-9.101-6.421-8.354-25.347-4.65-35.116c4.205-11.097,45.029-63.793,45.029-63.793
						s-1.364-7.164,0.342-10.234c1.705-3.07,10.575-20.468,10.575-20.468S581.1,282.695,581.611,274.167z"/>
					<path style="fill-rule:evenodd;clip-rule:evenodd;fill:#DC9576;" d="M601.188,271.462l0.892,0.828c0,0,0.242-0.217,0.627-0.487
						c-0.019,3.432-0.386,6.815-0.771,10.339c-0.175,0.722-0.9,1.165-1.621,0.991c-0.723-0.175-1.166-0.9-0.992-1.622
						C600.005,278.097,600.5,274.778,601.188,271.462L601.188,271.462z M607.296,271.866c0.559,0.589,0.924,1.191,0.924,1.191
						s0.328-0.347,0.883-0.72c0.136,3.991-0.252,7.875-1.18,12.208c-0.203,0.714-0.946,1.128-1.66,0.926
						c-0.714-0.202-1.129-0.946-0.926-1.66C606.759,278.875,607.012,275.482,607.296,271.866L607.296,271.866z M613.584,272.299
						c0.856,0.8,1.374,1.867,1.374,1.867l-0.477-7.207c0.029-0.089,0.061-0.172,0.092-0.247c1.226,4.27,0.503,16.07-0.521,20.905
						c-0.241,0.701-1.006,1.075-1.708,0.833c-0.701-0.241-1.074-1.006-0.833-1.707C612.546,283.05,613.054,276.918,613.584,272.299z
						"/>
					<path style="fill-rule:evenodd;clip-rule:evenodd;fill:#D48B70;" d="M539.05,236.238c-3.951,0.301-7.691,0.872-12.779-1.742
						c-5.09-2.613-1.825,3.366,0.846,5.435C529.786,241.999,538.137,242.565,539.05,236.238z"/>
					<path style="fill-rule:evenodd;clip-rule:evenodd;fill:#4E1000;" d="M530.944,239.048c-10.059-2.859-8.93-6.21-2.208-14.345
						c-3.43,8.811-6.515,10.043,2.645,11.967c0.656,0.121,1.091,0.751,0.971,1.407C532.23,238.734,531.601,239.169,530.944,239.048z
						"/>
					<path style="fill-rule:evenodd;clip-rule:evenodd;fill:#A85A49;" d="M529.214,256.802c-2.634,1.065-4.702,2.448-5.965,3.773
						c0.735,3.347,1.891,5.801,5.834,6.214c1.327,0.139,2.653,0.061,3.961-0.209c4.353-0.896,8.498-3.906,11.785-8.063
						c0.616-0.779,1.201-1.599,1.753-2.452c-0.247-0.101-0.514-0.188-0.801-0.264c-2.542-0.664-5.012-0.917-7.338-0.869
						C534.972,255.005,531.816,255.748,529.214,256.802z"/>
					<path style="fill-rule:evenodd;clip-rule:evenodd;fill:#4E1000;" d="M531.67,252.992c-4.048-0.405-7.873-1.18-10.725-1.902
						c0.739,1.796,1.174,3.604,1.513,5.322c0.009,0.048,0.019,0.095,0.027,0.143c0.276,1.424,0.491,2.783,0.764,4.021
						c1.263-1.325,3.331-2.708,5.965-3.773c2.603-1.054,5.758-1.797,9.229-1.869c2.326-0.048,4.796,0.205,7.338,0.869
						c0.287,0.075,0.554,0.163,0.801,0.264c1.111-1.72,2.084-3.576,2.88-5.518c-2.851,1.763-6.634,2.526-10.627,2.693
						C536.471,253.34,534.032,253.229,531.67,252.992z"/>
					<path style="fill-rule:evenodd;clip-rule:evenodd;fill:#BA7059;" d="M545.261,151.551c8.316,0.98,17.378,3.48,25.685,8.822
						c10.241,6.585,19.335,17.486,24.47,35.174c1.211,4.169,2.511,7.983,3.888,11.477c5.906,14.983,13.213,24.041,20.81,29.643
						c3.785,2.791,7.642,4.725,11.432,6.105c-0.084-0.266-0.16-0.514-0.227-0.743c-10.122-34.21,0.186-107.659-65.739-113.016
						c-24.071-1.956-39.127,5.81-46.81,15.09c-1.184,1.43-9.936,18.67-7.23,18.792C514.79,163.042,515.757,148.076,545.261,151.551z
						"/>
					<path style="fill-rule:evenodd;clip-rule:evenodd;fill:#FFFFFF;" d="M519.106,207.699c0.813,0,1.472,0.659,1.472,1.471
						c0,0.813-0.659,1.472-1.472,1.472c-0.812,0-1.471-0.658-1.471-1.472C517.636,208.358,518.295,207.699,519.106,207.699z"/>
					<path style="fill-rule:evenodd;clip-rule:evenodd;fill:#FFFFFF;" d="M561.066,213.84c0.813,0,1.472,0.658,1.472,1.471
						s-0.659,1.472-1.472,1.472c-0.812,0-1.471-0.659-1.471-1.472S560.255,213.84,561.066,213.84z"/>
					<path style="fill-rule:evenodd;clip-rule:evenodd;fill:#DC9576;" d="M530.411,147.496c27.657-4.682,51.489,7.968,63.192,33.589
						c6.093,13.336,10.583,36.158,17.45,46.672c4.141,6.341,7.482,7.696,14.535,9.288l-3.381,0.188
						c-9.346-0.69-14.856-10.126-18.227-17.725c-8.886-20.033-12.295-43.176-29.926-58.634
						C560.858,149.303,546.729,148.991,530.411,147.496z"/>
					<path style="fill-rule:evenodd;clip-rule:evenodd;fill:#DC9576;" d="M529.388,144.425c17.688-5.551,45.01-9.31,60.889,2.604
						c14.243,10.687,19.437,30.811,20.882,47.247c1.12,12.73,2.021,18.549,7.285,30.198c1.715,3.794,3.155,5.67,5.61,8.987
						c-3.064-2.281-3.672-2.778-5.783-6.02c-5.428-8.335-8.597-18.8-9.891-28.422c-1.944-14.46-3.389-23.651-10.709-36.753
						C582.152,134.49,555.916,142.734,529.388,144.425z"/>
					<path style="fill-rule:evenodd;clip-rule:evenodd;fill:#DC9576;" d="M545.759,400.404c-1.496-11.331,4.688-27.93,12.396-43.418
						c3.534-7.102,7.39-13.97,10.972-19.989v-0.001c7.306-12.277,13.475-21.024,13.475-21.024s0,0-0.393-6.679
						c-1.396,1.808-8.343,10.816-16.381,21.603c-0.428,0.573-0.857,1.151-1.291,1.734c-11.54,15.532-24.802,34.055-27.103,40.126
						c-3.703,9.77-4.45,28.695,4.65,35.116c1.6,1.13,3.619,1.84,5.918,2.063C546.999,407.072,546.222,403.904,545.759,400.404z"/>
					<path style="fill-rule:evenodd;clip-rule:evenodd;fill:#D57B59;" d="M509.137,223.916c5.639,0.384,10.015,3.551,9.775,7.075
						c-0.239,3.523-5.005,6.069-10.644,5.687c-5.639-0.384-10.015-3.552-9.775-7.075
						C498.733,226.078,503.498,223.532,509.137,223.916z"/>
					<path style="fill-rule:evenodd;clip-rule:evenodd;fill:#D57B59;" d="M560.818,230.057c5.64,0.383,10.016,3.551,9.776,7.075
						c-0.239,3.523-5.005,6.069-10.644,5.687c-5.638-0.384-10.014-3.552-9.774-7.075
						C550.415,232.219,555.18,229.673,560.818,230.057z"/>
				</g>
				<g>
					<path style="fill-rule:evenodd;clip-rule:evenodd;fill:#A7672A;" d="M408.767,213.774c-0.256-8.151,4.336-18.745,6.584-17.965
						c2.248,0.781-2.366,11.713-2.366,11.713s8.227-7.914,11.491-5.521C427.738,204.395,410.086,216.689,408.767,213.774z"/>
					<path style="fill-rule:evenodd;clip-rule:evenodd;fill:#E6B495;" d="M497.586,401.923
						c11.599,10.233,22.174,24.902,22.174,24.902s35.648,25.415,53.218,42.983L603.168,500h-97.09
						c-7.33-8.182-25.462-29.231-30.326-42.472c-6.14-16.716-18.101-33.091-18.101-33.091L497.586,401.923z"/>
					<path style="fill-rule:evenodd;clip-rule:evenodd;fill:#E6B495;" d="M274.439,401.923
						c-11.599,10.233-22.174,24.902-22.174,24.902s-35.648,25.415-53.218,42.983L168.857,500h97.089
						c7.33-8.182,25.462-29.231,30.326-42.472c6.141-16.716,18.102-33.091,18.102-33.091L274.439,401.923z"/>
					<path style="fill-rule:evenodd;clip-rule:evenodd;fill:#616B81;" d="M356.202,335.23c-4.849,0.422-11.778-0.924-19.068,1.923
						c-7.164,2.797-14.924,6.679-22.132,11.472c-2.269,1.508-5.761,1.57-7.884,3.254c-2.001,1.586-2.644,4.784-4.454,6.517
						c-4.053,3.879-7.555,8.114-10.169,12.654c-7.493,13.014-13.846,21.696-17.874,26.708c-2.94,3.658-5.408,7.149-5.408,7.149
						s21.918,2.303,27.376,23.453c5.458,21.151,4.775,27.291,4.775,27.291l10.917-17.739L318.305,500h133.61l6.023-62.088
						l10.916,17.739c0,0-0.682-6.14,4.776-27.291c5.458-21.15,26.608-25.244,26.608-25.244s-9.552-9.552-22.515-32.066
						c-9.648-16.757-31.39-29.357-48.349-35.268c-5.827-2.031-10.835-0.202-14.847-0.551H356.202z"/>
					<g>
						<path style="fill-rule:evenodd;clip-rule:evenodd;fill:#3E4157;" d="M338.283,336.737c-0.382,0.128-0.765,0.266-1.149,0.416
							c-0.932,0.363-1.873,0.746-2.822,1.146c-1.636,36.504,19.143,54.904,52.244,65.688c5.426,1.769,3.025,1.207,8.651,1.868
							c-5.56-1.767-2.767-0.761-8.25-2.987c-31.354-12.73-51.453-28.822-48.604-65.406
							C338.374,337.21,338.349,336.966,338.283,336.737z"/>
						<path style="fill-rule:evenodd;clip-rule:evenodd;fill:#3E4157;" d="M436.017,361.635
							c-6.344,17.548-18.865,25.947-34.912,34.139c-3.88,1.98-6.42,3.164-10.503,4.708c17.099-12.32,34.325-17.573,41.574-39.956
							c0.307-1.061,1.415-1.673,2.476-1.366C435.712,359.466,436.323,360.574,436.017,361.635z"/>
					</g>
					<g>
						<path style="fill-rule:evenodd;clip-rule:evenodd;fill:#3E4157;" d="M307.738,445.295l4.543-7.383l0.315,3.253
							c1.58-3.661,3.105-6.864,5.257-10.67c6.295-11.142,6.167-12.817,3.698-25.455c-2.322-11.885-4.961-20.618-9.752-31.679
							c0.449,3.354,0.73,4.423,1.681,7.625c2.561,8.628,4.081,15.621,5.453,24.523c1.825,11.844,2.03,13.012-4.13,23.182
							c-3.074,5.075-4.985,9.101-7.413,14.529C307.094,443.945,307.254,444.744,307.738,445.295z"/>
						<path style="fill-rule:evenodd;clip-rule:evenodd;fill:#3E4157;" d="M457.624,441.15l0.314-3.238l2.266,3.683
							c0.634-0.384,1.028-1.105,0.957-1.893c-2.175-16.905-8.579-31.979-5.467-49.321c0.803-4.477,1.268-3.623,0.406-7.809
							c-0.693,4.263-0.555,2.938-1.835,7.479c-4.699,16.67,1.362,33.377,2.913,50.012
							C457.217,440.478,457.379,440.851,457.624,441.15z"/>
						<path style="fill-rule:evenodd;clip-rule:evenodd;fill:#3E4157;" d="M277.612,393.9c-0.977,1.302-1.875,2.459-2.685,3.475
							c4.142,2.156,16.593,3.447,22.16,7.61c2.202,1.645,5.274,11.974,6.169,15.251c1.332,4.875,2.544,10.622,4.189,15.295
							c0.371-5.11-2.05-18.224-3.758-23.249c-1.569-4.621-2.001-8.492-6.352-11.121C291.575,397.681,284.422,394.769,277.612,393.9z
							"/>
						<path style="fill-rule:evenodd;clip-rule:evenodd;fill:#3E4157;" d="M497.088,399.574c-0.79-0.942-1.716-2.082-2.762-3.425
							c-8.347,3.044-21.072,8.306-22.467,10.788c-2.439,4.342-10.066,21.037-10.134,25.268c4.14-8.034,8.581-15.857,12.753-23.847
							C477.545,406.093,489.883,401.986,497.088,399.574z"/>
					</g>
					<path style="fill-rule:evenodd;clip-rule:evenodd;fill:#89ABA9;" d="M334.858,338.07c-0.04,0.868-0.063,1.74-0.063,2.618
						c0,29.392,23.063,53.218,51.512,53.218c28.449,0,51.512-23.826,51.512-53.218c0-0.527-0.009-1.052-0.023-1.574
						C414.632,328.874,358.104,328.413,334.858,338.07z"/>
					<g>
						<path style="fill-rule:evenodd;clip-rule:evenodd;fill:#EDCBAB;" d="M415.56,333.044c4.904-7.604,9.808-7.773,12.195-5.729
							c2.389,2.045,3.412,3.272,3.412,3.272s6.31-1.772,8.188-0.682c1.875,1.091,3.752,4.771,3.752,4.771s4.436-1.091,6.482,0.954
							c2.046,2.046,2.729,3.818,2.729,3.818s3.069-0.375,5.116,3.715c2.048,4.091,5.118,19.325,3.242,20.416
							c-1.877,1.091-6.057-2.457-6.057-2.457s1.771,6.027-2.792,6.692c-4.564,0.665-5.267-7.042-5.267-7.042
							c-0.389,9.538-6.802,7.099-8.955-1.079c0.426,2.745,1.332,6.74,0.785,6.978c-6.365,2.759-7.085-4.805-8.385-8.548
							c-2.933-8.443-8.477-23.892-8.477-23.892S417.266,333.726,415.56,333.044z"/>
						<path style="fill-rule:evenodd;clip-rule:evenodd;fill:#DC9576;" d="M455.85,362.329c-0.097,0.487-0.363,1.462-1.036,2.257
							c-1.288-7.775-3.919-18.174-4.201-19.323c-0.167-0.77,0.322-1.528,1.092-1.695c0.77-0.166,1.528,0.322,1.695,1.092
							C453.445,344.895,455.004,353.934,455.85,362.329L455.85,362.329z M446.749,363.027c-0.121-0.13-0.188-0.206-0.188-0.206
							c-0.393,0.361-0.77,0.676-1.133,0.949c-0.354-10.607-2.826-15.06-4.057-25.119c-0.048-0.786,0.551-1.462,1.337-1.51
							C445.553,336.969,446.639,355.251,446.749,363.027L446.749,363.027z M438.07,363.271c-0.403-0.782-0.765-1.65-1.102-2.552
							c-0.17,0.251-4.886-20.419-6.344-25.48c0-0.787,0.638-1.426,1.426-1.426c0.787,0,1.426,0.639,1.426,1.426
							C436.345,345.329,439.003,353.724,438.07,363.271z"/>
					</g>
					<path style="fill-rule:evenodd;clip-rule:evenodd;fill:#DC9576;" d="M345.541,321.415c7.399,21.256,11.385,32.701,13.53,38.864
						c5.226,15.01,22.132,19.543,36.616,15.718c16.671-4.403,23.126-15.834,23.3-31.22l0.58-51.336L345.541,321.415z"/>
					<path style="fill-rule:evenodd;clip-rule:evenodd;fill:#A85A49;" d="M345.541,321.415l9.473,27.211
						c5.921,4.633,12.015,8.767,14.655,9.913c8.529,3.702,33.244-0.84,39.898-7.333c1.942-1.894,5.807-7.358,9.498-13.366
						l0.502-44.398L345.541,321.415z"/>
					<path style="fill-rule:evenodd;clip-rule:evenodd;fill:#DC9576;" d="M332.835,282.947c-3.462-4.903-7.097-7.314-10.396-7.317
						c-16.659-0.018-6.813,35.065,11.532,28.162C345.684,299.384,332.835,282.947,332.835,282.947z"/>
					<path style="fill-rule:evenodd;clip-rule:evenodd;fill:#A85A49;" d="M329.865,286.177c-1.901-2.694-3.899-4.02-5.712-4.021
						c-9.156-0.009-3.745,19.271,6.337,15.477C336.927,295.21,329.865,286.177,329.865,286.177z"/>
					<path style="fill-rule:evenodd;clip-rule:evenodd;fill:#DC9576;" d="M415.758,267.707c1.491-5.813,4.031-9.357,7.114-10.534
						c15.563-5.94,18.835,30.35-0.767,30.421C409.592,287.639,415.758,267.707,415.758,267.707z"/>
					<path style="fill-rule:evenodd;clip-rule:evenodd;fill:#A85A49;" d="M419.681,269.67c0.82-3.194,2.216-5.143,3.91-5.789
						c8.554-3.265,10.351,16.68-0.422,16.719C416.292,280.624,419.681,269.67,419.681,269.67z"/>
					<path style="fill-rule:evenodd;clip-rule:evenodd;fill:#E6B495;" d="M318.872,249.827
						c14.84,64.933,15.111,67.329,20.038,73.956c4.927,6.628,22.633,19.769,27.688,21.963c8.529,3.702,33.244-0.84,39.898-7.332
						c3.945-3.849,15.822-22.427,18.071-30.373c2.248-7.945,1.65-10.283-7.567-76.248
						C407.303,190.651,313.31,207.926,318.872,249.827z"/>
					<path style="fill-rule:evenodd;clip-rule:evenodd;fill:#FFFFFF;" d="M399.314,262.935c-3.145,0.57-5.309,4.412-4.834,8.582
						c0.475,4.169,3.407,7.087,6.551,6.517c3.144-0.571,5.308-4.413,4.834-8.582C405.392,265.282,402.458,262.365,399.314,262.935
						L399.314,262.935z M346.858,272.574c3.058-0.57,6.43,2.347,7.531,6.517c1.102,4.169-0.484,8.012-3.543,8.582
						c-3.058,0.57-6.43-2.347-7.531-6.517C342.215,276.987,343.8,273.145,346.858,272.574z"/>
					<path style="fill-rule:evenodd;clip-rule:evenodd;fill:#4E1000;" d="M350.435,271.551c3.104-0.57,6.241,2.348,7.007,6.517
						c0.767,4.169-1.128,8.012-4.231,8.582c-3.104,0.57-6.242-2.347-7.009-6.517C345.435,275.964,347.33,272.121,350.435,271.551z"
						/>
					<path style="fill-rule:evenodd;clip-rule:evenodd;fill:#4E1000;" d="M353.233,274.216c-4.953-3.343-9.639,1.329-11.929,5.691
						c-0.681-4.883,6.616-11.476,13.369-7.632c0.536,0.397,0.649,1.155,0.251,1.691
						C354.527,274.502,353.771,274.614,353.233,274.216z"/>
					<path style="fill-rule:evenodd;clip-rule:evenodd;fill:#4E1000;" d="M395.226,263.319c-3.103,0.57-4.999,4.412-4.232,8.582
						c0.767,4.169,3.903,7.087,7.008,6.517c3.103-0.57,4.998-4.413,4.232-8.582C401.467,265.666,398.33,262.749,395.226,263.319z"/>
					<path style="fill-rule:evenodd;clip-rule:evenodd;fill:#4E1000;" d="M393.557,266.806c3.441-4.887,9.483-2.185,13.174,1.076
						c-1.101-4.806-10.265-8.373-15.21-2.379c-0.359,0.563-0.195,1.31,0.367,1.67C392.449,267.532,393.197,267.368,393.557,266.806z
						"/>
					<path style="fill-rule:evenodd;clip-rule:evenodd;fill:#FFFFFF;" d="M356.999,310.579c46.638-8.571,45.967-8.447,45.967-8.447
						c0.177,17.197-10.057,20.851-19.041,23.025C373.715,327.629,360.413,323.231,356.999,310.579z"/>
					<path style="fill-rule:evenodd;clip-rule:evenodd;fill:#885312;" d="M329.166,238.178
						c10.234-13.305,28.997-19.104,52.535-13.305c23.538,5.8,25.585-10.916,25.585-10.916s-26.949-17.058-48.1-13.646
						C338.035,203.723,324.39,218.392,329.166,238.178z"/>
					<path style="fill-rule:evenodd;clip-rule:evenodd;fill:#A7672A;" d="M309.722,246.449
						c1.023,12.963,18.421,43.324,18.421,43.324l-1.706-22.515c0,0,4.947-5.8,6.652-17.398c1.706-11.599,2.729-27.888,16.204-33.516
						c13.475-5.63,24.05,1.193,34.626,6.651c10.575,5.459,20.98,3.241,20.98,3.241s-3.411,6.481-0.853,8.017
						c2.559,1.535,5.117-8.188,5.117-8.188s0.17,12.964,3.752,18.763c3.582,5.799,8.87,23.88,8.87,23.88s4.093-46.736,1.534-53.559
						c-2.558-6.822-11.086-6.141-11.086-6.141s-8.529-17.057-25.756-18.934c-17.228-1.876-29.168,4.095-29.168,4.095
						S303.41,194.341,309.722,246.449z"/>
					<path style="fill-rule:evenodd;clip-rule:evenodd;fill:#4E1000;" d="M390.717,249.225c7.569-0.686,8.667-0.836,14.604,2.554
						c-5.925,0.846-6.834,0.343-12.544,2.049c-1.767,0.409-3.66-0.289-4.228-1.561C387.979,250.996,388.95,249.634,390.717,249.225z
						"/>
					<path style="fill-rule:evenodd;clip-rule:evenodd;fill:#4E1000;" d="M349.555,255.311c-7.354,1.889-8.454,2.117-11.651,7.089
						c5.959-1.204,6.458-1.95,12.783-2.319c1.88-0.219,3.15-1.465,2.838-2.781C353.211,255.982,351.434,255.093,349.555,255.311z"/>
					<path style="fill-rule:evenodd;clip-rule:evenodd;fill:#DC9576;" d="M277.271,465.353c0,0-13.748,19.764-39.745,34.647h28.421
						c7.33-8.182,25.462-29.231,30.326-42.472c1.268-3.454,2.785-6.892,4.393-10.175c-0.645-4.234-1.851-10.365-4.077-18.993
						c-4.319-16.737-18.467-22.793-24.182-24.592c-0.842,0.786-1.676,1.592-2.497,2.406c14.927,8.357,17.697,21.38,19.13,29.5
						c1.535,8.698,1.023,15.351,1.023,15.351L277.271,465.353z"/>
					<path style="fill-rule:evenodd;clip-rule:evenodd;fill:#DC9576;" d="M475.752,457.528c4.864,13.24,22.996,34.29,30.326,42.472
						h30.624c-25.996-14.883-39.746-34.647-39.746-34.647l-12.793-14.328c0,0-0.512-6.652,1.023-15.351
						c1.388-7.861,4.029-20.318,17.74-28.688c-1.22-1.232-2.472-2.447-3.74-3.619c-4.339,1.153-20.83,6.679-25.556,24.992
						c-1.792,6.944-2.922,12.27-3.633,16.293C472.104,448.725,474.132,453.114,475.752,457.528z"/>
					<path style="fill-rule:evenodd;clip-rule:evenodd;fill:#D48B70;" d="M385.73,291.696c-3.474,1.905-6.644,3.97-12.358,3.69
						c-5.714-0.28-0.272,3.818,3.015,4.6C379.673,300.768,387.512,297.836,385.73,291.696z"/>
					<path style="fill-rule:evenodd;clip-rule:evenodd;fill:#4E1000;" d="M378.339,294.664c9.011-2.16,5.034-4.66,2.402-14.185
						l1.745,2.913c4.768,8.522,4.808,11.103-3.185,13.648c-0.63,0.121-6.984-0.185-7.251-0.842
						C371.785,295.543,377.709,294.784,378.339,294.664z"/>
					<path style="fill-rule:evenodd;clip-rule:evenodd;fill:#4E1000;" d="M367.841,316.829c-2.052,0.148-4.103-0.395-5.855-1.629
						c-1.537-1.085-2.841-2.703-3.707-4.855c-0.422,0.077-0.849,0.155-1.279,0.234c0.563,2.084,1.393,3.943,2.434,5.586
						c1.313,2.071,2.96,3.796,4.824,5.187c-0.021-0.079-0.043-0.158-0.062-0.237c-0.512-2.11,8.188-4.605,8.188-4.605
						S372.255,316.509,367.841,316.829z"/>
					<path style="fill-rule:evenodd;clip-rule:evenodd;fill:#4E1000;" d="M395.753,311.128c-4.112,1.633-4.228,1.689-4.228,1.689
						s8.918-1.541,9.375,0.582c0.016,0.069,0.029,0.14,0.043,0.21c1.313-2.948,2.071-6.688,2.022-11.477
						c0,0,0.069-0.013-1.402,0.258C401.427,306.69,399.033,309.825,395.753,311.128z"/>
					<path style="fill-rule:evenodd;clip-rule:evenodd;fill:#D57B59;" d="M350.333,292.808c5.579-0.901,10.559,1.193,11.122,4.681
						c0.564,3.487-3.503,7.045-9.082,7.946c-5.578,0.901-10.559-1.193-11.122-4.681
						C340.688,297.267,344.753,293.709,350.333,292.808z"/>
					<path style="fill-rule:evenodd;clip-rule:evenodd;fill:#D57B59;" d="M404.573,283.597c5.579-0.901,10.56,1.194,11.123,4.682
						c0.564,3.486-3.503,7.044-9.082,7.945c-5.579,0.902-10.559-1.193-11.122-4.681S398.994,284.498,404.573,283.597z"/>
					<path style="fill-rule:evenodd;clip-rule:evenodd;fill:#D48B70;" d="M392.126,327.004c-3.473,1.905-6.643,3.97-12.357,3.69
						c-5.714-0.28-0.271,3.818,3.015,4.6C386.069,336.075,393.908,333.144,392.126,327.004z"/>
					<path style="fill-rule:evenodd;clip-rule:evenodd;fill:#FFFFFF;" d="M379.441,284.614c-0.594,0.098-0.458,1.65,0.301,3.467
						c0.76,1.816,1.854,3.21,2.448,3.111c0.593-0.099,0.457-1.651-0.302-3.468C381.13,285.908,380.034,284.516,379.441,284.614z"/>
					<path style="fill-rule:evenodd;clip-rule:evenodd;fill:#FFFFFF;" d="M353.058,274.732c0.813,0,1.471,0.659,1.471,1.472
						s-0.658,1.471-1.471,1.471s-1.471-0.658-1.471-1.471S352.245,274.732,353.058,274.732z"/>
					<path style="fill-rule:evenodd;clip-rule:evenodd;fill:#FFFFFF;" d="M399.111,265.778c0.813,0,1.471,0.658,1.471,1.471
						s-0.658,1.471-1.471,1.471s-1.472-0.658-1.472-1.471S398.299,265.778,399.111,265.778z"/>
					<path style="fill-rule:evenodd;clip-rule:evenodd;fill:#3E4157;" d="M348.642,476.006c19.943,0.518,64.163,4.665,80.901-7.31
						c2.925-2.092,5.113-4.096,8.392-5.787c-2.081,2.193-5.135,4.908-7.486,6.845c-16.477,13.564-61.339,10.287-81.807,10.25
						c-1.104,0-1.999-0.895-1.999-1.999C346.643,476.9,347.538,476.006,348.642,476.006z"/>
					<path style="fill-rule:evenodd;clip-rule:evenodd;fill:#3E4157;" d="M367.448,480.321c-7.225-0.102-13.758-0.309-18.807-0.317
						c-1.104,0-1.999-0.895-1.999-1.999c0-1.105,0.895-1.999,1.999-1.999c4.702,0.122,10.752,0.445,17.476,0.713
						c21.79,0.864,50.635,1.129,63.426-8.023c2.925-2.092,5.113-4.096,8.392-5.787c-2.081,2.193-5.135,4.908-7.486,6.845
						C418.036,479.972,389.514,480.633,367.448,480.321L367.448,480.321z M365.219,474.29c-10.23-0.734-19.129-1.669-24.005-2.112
						c-13.142-1.195-15.35-22.249-18.502-52.327c-0.668,2.884-2.184,5.909-4.858,10.645c-2.151,3.806-3.677,7.009-5.257,10.67
						L318.305,500h56.419h77.191l2.571-26.502c-3.66,5.127-8.885,9.389-16.305,10.449c-21.491,3.07-51.938,2.047-25.073-3.326
						c26.864-5.373,34.54-23.539,34.54-23.539s-12.025,7.42-28.399,14.584C408.548,476.348,384.516,475.675,365.219,474.29z"/>
					<path style="fill-rule:evenodd;clip-rule:evenodd;fill:#F5E2CE;" d="M502.169,407.461c7.046,9.28,12.088,19.364,12.088,19.364
						s30.033,25.415,43.719,42.983L581.495,500h21.673l-30.191-30.191c-17.569-17.568-53.218-42.983-53.218-42.983
						s-7.52-10.431-16.833-19.838C502.67,407.145,502.418,407.302,502.169,407.461z"/>
					<path style="fill-rule:evenodd;clip-rule:evenodd;fill:#F5E2CE;" d="M252.266,426.825c0,0-24.532,17.49-42.925,33.481
						c-3.778,3.285-7.299,6.508-10.293,9.502l-23.047,23.047L168.857,500h7.144h14.782l23.16-29.829l0.281-0.362
						c13.641-17.568,43.608-42.983,43.608-42.983s3.699-7.436,9.19-15.415c0.707-1.026,1.443-2.063,2.206-3.093
						c0.438-0.592,0.885-1.182,1.339-1.767c-0.217-0.127-0.437-0.252-0.658-0.376c-0.374,0.371-0.746,0.745-1.115,1.12
						c-0.833,0.848-1.652,1.702-2.451,2.556C258.347,418.391,252.266,426.825,252.266,426.825z"/>
					<path style="fill-rule:evenodd;clip-rule:evenodd;fill:#DC9576;" d="M339.292,238.199c2.303-8.06,18.806-14.584,41.192-11.77
						c9.933,1.248,16.844,1.037,21.649,0.157c-2.211,0.167-5.572,0.191-9.429-0.561c-3.011,0.224-6.638-0.078-11.004-1.153
						c-18.53-4.566-34.103-1.942-44.882,5.872c-2.187,6.256-2.872,13.279-3.73,19.115c-0.583,3.966-1.544,7.252-2.558,9.861
						C334.435,253.175,337.513,244.427,339.292,238.199z"/>
					<path style="fill-rule:evenodd;clip-rule:evenodd;fill:#C07D19;" d="M315.752,233.079
						c3.934-18.246,23.233-33.105,42.025-30.521c12.738,1.751,22.017,7.188,33.48,10.892c7.694,2.486,10.371,1.259,17.19,2.3
						c0.146,0.023,0.122,0.043,0.18,0.06c0.148,0.086-0.469,0.322-0.494,0.33c-4.477,1.48-12.862,0.867-17.592-0.296
						c-15.561-3.83-32.987-13.6-49.593-7.385C328.191,213.232,322.348,222.102,315.752,233.079z"/>
					<path style="fill-rule:evenodd;clip-rule:evenodd;fill:#823B2F;" d="M327.178,286.142c-3.016-3.664-5.765-5.49-8.371,1.037
						c-0.16-0.376-0.21-0.355-0.128-0.708c1.479-6.35,4.719-5.645,7.844-3.172C326.746,284.271,326.965,285.223,327.178,286.142z"/>
					<path style="fill-rule:evenodd;clip-rule:evenodd;fill:#823B2F;" d="M421.817,266.268c1.201-2.299,3.152-3.881,5.91-2.576
						c1.884,0.891,2.441,2.529,2.63,4.426c-3.998-6.551-7.598-3.061-7.918,2.675C422.242,269.351,422.035,267.844,421.817,266.268z"
						/>
				</g>
			</g>
		</g>
	</g>
</g>
</svg>
